<?xml version="1.0" encoding="utf-8"?>
<!-- Generator: Adobe Illustrator 16.0.0, SVG Export Plug-In . SVG Version: 6.00 Build 0)  -->
<!DOCTYPE svg PUBLIC "-//W3C//DTD SVG 1.1//EN" "http://www.w3.org/Graphics/SVG/1.1/DTD/svg11.dtd">
<svg version="1.1" id="Layer_1" xmlns="http://www.w3.org/2000/svg" xmlns:xlink="http://www.w3.org/1999/xlink" x="0px" y="0px"
	 width="612px" height="612px" viewBox="0 0 612 612" enable-background="new 0 0 612 612" xml:space="preserve">
<path fill="#B3B3B3" d="M191.797,507.734c0,0-9.612,5.896-8.822,15.116s27.76,16.323,46.813,17.119c0,0,0.611,13.467,9.042,20.568
	s11.33,9.21,23.186,9.21s31.089-3.162,42.418-12.12c7.114-7.641,8.432-7.641,8.432-7.641s60.071,4.742,95.903,2.371
	s64.813-8.959,78.251-26.348s3.952-32.406-7.377-28.981"/>
<path fill="#C52327" stroke="#000000" stroke-width="4" stroke-miterlimit="10" d="M260.487,352.254
	c0,0-16.984,28.915-19.875,42.259C224.376,402.741,187,427.25,179,457s11,67.333,58.333,71.333S372.5,538,408,535s46-3.5,60.5-25
	s53.166-80.332,21.833-165.666c-14.667-36.001-51.991-44.863-51.991-44.863"/>
<path fill="#7F5C4D" d="M459.752,351.565c0,0-15.7-24.836-57.878-22.089s-50.569,7.723-50.569,7.723l-85.555-11.442l5,7.589
	L277.5,347l1.5,6.97l10.25,12.28l1.188,1.772l0.924,3.142l1.786,2.125l0.352,1.817c0,0-7.5,30.311-6.5,37.394
	s105.334,13.75,105.334,13.75L404,421.334l32.667-15.166L459.752,351.565z"/>
<path fill="#7F5C4D" stroke="#000000" stroke-width="4" stroke-miterlimit="10" d="M292.971,374.464
	c-85.688-53.5-94.471-96.964-80.471-114.876s41.127,0,41.127,0"/>
<path fill="#7F5C4D" stroke="#000000" stroke-width="4" stroke-miterlimit="10" d="M405.5,189c0,0,48,24,44.5,74s-60.5,107-144,84
	c-76.5-23.5-52.5-108-39.5-122.5c0,0-18.806-17.66-8.28-33.537s27.116-23.014,45.492,1.605c8.207-5.173,14.539-13.05,50.039-16.059
	c6.5-15.509,19.75-32.759,37.5-26.009S405.5,189,405.5,189z"/>
<path fill="#624037" d="M273.984,216.269c0,0,8.745-12.054,21.243-19.239c0,0-11.089-14.83-21.243-6.546
	S269.041,208.387,273.984,216.269z"/>
<path fill="#624037" d="M367.25,178c0,0,6.5-16,15.75-13.75s10,15.25,9.5,18.5C392.5,182.75,372.75,177.75,367.25,178z"/>
<path d="M334,221.333c0,0,9.668,17,4.334,36s-24,35-39,21.667c-15-13.333-19-32-9-39.333S331,219.333,334,221.333z"/>
<path d="M351.506,224.333c0,0-2.305-11,8.695-13.333s44.666-10.333,48,0s7.334,37-9.666,46S358.144,250.667,351.506,224.333z"/>
<path fill="#F1DBD0" d="M354.667,250.667c0,0-24.666,7-17.333,28s20.441,33.044,36.333,23
	C391.492,290.401,376.843,243.307,354.667,250.667z"/>
<ellipse cx="355.833" cy="261.833" rx="6.833" ry="7.167"/>
<path fill="none" stroke="#000000" stroke-width="4" stroke-linecap="round" stroke-miterlimit="10" d="M355.834,297
	c5.5-17.334,0.656-30.221,0.656-30.221s5.844,19.221,15.177,19.888"/>
<path fill="none" stroke="#000000" stroke-width="4" stroke-linecap="round" stroke-miterlimit="10" d="M287,404.5
	c2.5-18,13-48,13-48"/>
<path fill="none" stroke="#FFF200" stroke-width="4" stroke-linecap="round" stroke-miterlimit="10" d="M221.467,306.162
	c0,0,22.239-10.333,23.801-46.466"/>
<path fill="none" stroke="#FFF200" stroke-width="4" stroke-linecap="round" stroke-miterlimit="10" d="M309.971,351.783
	c0,0,16.362,25.884,44.029,19.884s42-27.333,42-27.333"/>
<line fill="none" stroke="#FFF200" stroke-width="4" stroke-linecap="round" stroke-miterlimit="10" x1="357.49" y1="358.398" x2="353.667" y2="393.543"/>
<line fill="none" stroke="#FFF200" stroke-width="4" stroke-linecap="round" stroke-miterlimit="10" x1="348.604" y1="358.398" x2="344.781" y2="393.543"/>
<line fill="none" stroke="#000000" stroke-width="4" stroke-miterlimit="10" x1="413.704" y1="375.971" x2="390.053" y2="331.639"/>
<path fill="#931A1D" d="M296.28,532.602l11.853,0.542c0,0,4.035-15.486,6.829-19.521s16.667-31.352,30.372-32.593
	s40.4,4.347,52.506,5.277s33.523,3.057,46.871-5.456s13.037-7.271,12.727-17.824s-13.666-19.866-21.888-19.866
	s-8.292,1.552-8.292,1.552l-66.046,6.829l-57.735-4.967c0,0-4.634,16.775-4.92,16.873s-14.325,37.447-14.325,38.379
	S296.28,532.602,296.28,532.602z"/>
<line fill="none" stroke="#000000" stroke-width="4" stroke-miterlimit="10" x1="456.75" y1="330.125" x2="433.25" y2="374.46"/>
<path fill="#7F5C4D" stroke="#000000" stroke-width="4" stroke-miterlimit="10" d="M257.5,473c0,0-9.188,40.661-11.739,44.488
	s-19.773,15.309-15.309,28.065s26.152,18.497,38.59,12.757s27.428-16.904,27.747-29.342s1.595-20.092,4.465-25.514
	s10.206-19.136,14.033-25.195s9.536-18.543,9.536-18.543"/>
<path fill="#FFFFFF" d="M316,246.333c0,0-1.871-16.927-16.333-7.667c-14.462,9.261-6.667,21.333-2.333,23.667S313,262,316,246.333z"
	/>
<path fill="#624037" d="M258.945,473.556l-2.608,13.307c0,0,13.787,0,21.004,0s29.996,0.902,29.996,0.902
	s10.757-16.014,13.464-23.682l1-3.157c0,0-12.66-0.901-14.689,1.128c-2.03,2.029-9.698,2.256-12.179,4.285
	S263.456,473.556,258.945,473.556z"/>
<path fill="#FFFFFF" d="M367.25,216.269c0,0-6.917,4.064-7.25,11.731s5.001,12,10.334,10s10.199-6.746,9.6-16.873
	S371.776,212.002,367.25,216.269z"/>
<path fill="#7F5C4D" stroke="#000000" stroke-width="4" stroke-linecap="round" stroke-miterlimit="10" d="M355.834,404.5
	c0,0-40.834-14-78.334,2.5s-35.5,14.5-44,13s-19.5,10.5-17,19.5s12,26,41,33.5c24.5,3.5,31.5-7,42.5-10s36-5.5,49-0.5
	s39.896,17,61.948,1.5S434.5,441.5,436,430"/>
<path fill="#FFFFFF" d="M397.5,335.062l-3.67,1.421l9.946,18.788l10.562,19.189h11.666l7.246-2.611l18.787-36.226
	c0,0-24.264,1.556-26.807,1.576S397.5,335.062,397.5,335.062z"/>
<polyline fill="#00AEEF" points="403.246,341.602 444.117,342.427 431.403,372.463 419.035,373.478 403.246,341.602 "/>
<path fill="#7F5C4D" stroke="#000000" stroke-width="4" stroke-linecap="round" stroke-miterlimit="10" d="M442.477,374.979
	c0,0-27.303-3.287-38.932,6.572s-19.719,26.544-1.517,39.689s44.746,9.354,57.892-3.539s23.805-49.498-7.94-75.334"/>
<path fill="#FFFFFF" stroke="#000000" stroke-width="4" stroke-miterlimit="10" d="M394.165,317.659c0,0-9.242,2.776-6.055,11.283
	s26.007,8.256,39.147,8.256s30.492,0.001,30.492-11.441C457.75,313.708,413.979,310.504,394.165,317.659z"/>
<line fill="none" stroke="#ED1C24" stroke-width="4" stroke-miterlimit="10" x1="412.328" y1="289.863" x2="422.235" y2="344.334"/>
<g>
	<path fill="#FFF200" d="M338.777,382.508l3.881-0.325c0.178,1.555,0.602,2.832,1.27,3.831c0.666,0.999,1.707,1.809,3.117,2.429
		c1.412,0.619,3,0.932,4.768,0.938c1.568,0.005,2.955-0.224,4.158-0.685c1.203-0.463,2.1-1.1,2.688-1.91
		c0.59-0.81,0.887-1.695,0.891-2.657c0.004-0.975-0.275-1.827-0.84-2.558c-0.563-0.73-1.492-1.345-2.791-1.845
		c-0.834-0.327-2.676-0.839-5.529-1.534c-2.852-0.696-4.85-1.35-5.992-1.961c-1.482-0.782-2.586-1.751-3.309-2.906
		c-0.723-1.154-1.084-2.445-1.078-3.873c0.006-1.569,0.455-3.033,1.352-4.395c0.895-1.36,2.199-2.392,3.912-3.092
		c1.713-0.701,3.613-1.048,5.707-1.041c2.303,0.009,4.334,0.387,6.09,1.135c1.758,0.749,3.107,1.846,4.051,3.29
		c0.939,1.444,1.443,3.079,1.508,4.902l-3.943,0.283c-0.205-1.965-0.918-3.451-2.137-4.459c-1.221-1.009-3.023-1.516-5.412-1.524
		c-2.488-0.009-4.303,0.44-5.443,1.349c-1.141,0.906-1.713,2.004-1.717,3.29c-0.004,1.116,0.395,2.037,1.197,2.761
		c0.789,0.724,2.854,1.47,6.195,2.237c3.338,0.768,5.631,1.437,6.873,2.007c1.805,0.84,3.137,1.901,3.994,3.183
		c0.857,1.282,1.283,2.758,1.277,4.426c-0.006,1.653-0.484,3.21-1.436,4.67c-0.953,1.459-2.316,2.592-4.094,3.398
		c-1.777,0.808-3.775,1.206-5.994,1.198c-2.813-0.01-5.168-0.428-7.066-1.254c-1.898-0.827-3.385-2.065-4.461-3.716
		C339.389,386.45,338.826,384.586,338.777,382.508z"/>
</g>
<path fill="none" stroke="#FFF200" stroke-width="4" stroke-linecap="round" stroke-miterlimit="10" d="M425.25,379.033
	c0,0,7.75,27.967-3.5,46.217"/>
<path fill="none" stroke="#FFF200" stroke-width="4" stroke-linecap="round" stroke-miterlimit="10" d="M434.25,379.033
	c0,0,7.766,26.785-4.992,46.376"/>
<g>
	<g>
		<g>
			<path fill="#FFD62E" d="M475.859,233.277c0,0,15.188-8.389,16.776-17.457c0,0,6.688,11.789,18.817,14.51
				c0,0-15.415,13.149-14.282,22.671C497.171,253.001,485.722,234.184,475.859,233.277z"/>
			<path fill="#FBB040" d="M497.171,254.501c-0.512,0-1.003-0.263-1.281-0.72c-3.078-5.055-12.702-18.324-20.168-19.01
				c-0.655-0.06-1.195-0.542-1.33-1.186c-0.136-0.644,0.166-1.302,0.742-1.621c0.146-0.081,14.579-8.15,16.024-16.403
				c0.109-0.623,0.598-1.11,1.221-1.218c0.626-0.108,1.248,0.187,1.561,0.735c0.064,0.112,6.528,11.25,17.842,13.788
				c0.555,0.125,0.991,0.552,1.128,1.103s-0.05,1.133-0.482,1.502c-4.075,3.479-14.403,13.988-13.789,21.134
				c0.035,0.126,0.053,0.259,0.053,0.396c0,0.829-0.671,1.5-1.5,1.5C497.186,254.5,497.178,254.501,497.171,254.501z
				 M479.601,232.749c6.636,2.85,13.122,11.092,16.489,15.899c1.879-6.974,8.848-14.274,12.359-17.613
				c-7.625-2.619-12.816-8.405-15.347-11.821C490.393,225.061,483.586,230.145,479.601,232.749z"/>
		</g>
		
			<ellipse transform="matrix(-0.8119 -0.5838 0.5838 -0.8119 753.5479 702.6309)" fill="#FFFFFF" cx="489.974" cy="229.913" rx="2.306" ry="4.454"/>
	</g>
	<g>
		<g>
			<path fill="#FFD62E" d="M458.738,274.553c0,0,13.331-7.363,14.725-15.322c0,0,5.869,10.347,16.516,12.735
				c0,0-13.529,11.541-12.535,19.898C477.443,291.865,467.395,275.349,458.738,274.553z"/>
			<path fill="#FBB040" d="M477.443,293.181c-0.449,0-0.881-0.231-1.125-0.632c-2.701-4.436-11.148-16.083-17.701-16.685
				c-0.575-0.053-1.049-0.475-1.167-1.041c-0.119-0.565,0.146-1.143,0.651-1.423c0.128-0.07,12.796-7.153,14.064-14.396
				c0.096-0.547,0.524-0.974,1.071-1.069c0.55-0.095,1.096,0.164,1.37,0.646c0.057,0.099,5.729,9.874,15.659,12.102
				c0.487,0.109,0.87,0.484,0.99,0.968s-0.044,0.994-0.424,1.318c-3.576,3.054-12.642,12.277-12.103,18.549
				c0.031,0.111,0.047,0.228,0.047,0.348c0,0.727-0.589,1.316-1.317,1.316C477.456,293.181,477.449,293.181,477.443,293.181z
				 M462.022,274.089c5.823,2.501,11.517,9.735,14.472,13.955c1.649-6.121,7.766-12.528,10.848-15.458
				c-6.692-2.298-11.248-7.377-13.47-10.375C471.494,267.342,465.52,271.804,462.022,274.089z"/>
		</g>
		
			<ellipse transform="matrix(-0.8119 -0.5838 0.5838 -0.8119 695.0846 767.1501)" fill="#FFFFFF" cx="471.126" cy="271.6" rx="2.024" ry="3.909"/>
	</g>
	<g>
		<g>
			<path fill="#FFD62E" d="M508.352,362.978c0,0,12.298-6.792,13.584-14.134c0,0,5.414,9.545,15.236,11.749
				c0,0-12.481,10.646-11.564,18.356C525.607,378.949,516.337,363.712,508.352,362.978z"/>
			<path fill="#FBB040" d="M525.607,380.164c-0.414,0-0.813-0.214-1.038-0.584c-2.491-4.092-10.284-14.836-16.33-15.393
				c-0.53-0.049-0.968-0.438-1.076-0.96c-0.11-0.521,0.134-1.054,0.601-1.313c0.118-0.065,11.805-6.6,12.976-13.281
				c0.088-0.505,0.483-0.899,0.988-0.987c0.507-0.087,1.011,0.151,1.264,0.596c0.052,0.091,5.286,9.109,14.446,11.164
				c0.449,0.102,0.803,0.447,0.914,0.894c0.11,0.445-0.041,0.917-0.392,1.216c-3.299,2.817-11.662,11.326-11.165,17.112
				c0.029,0.102,0.043,0.21,0.043,0.321c0,0.671-0.543,1.215-1.215,1.215C525.619,380.163,525.613,380.164,525.607,380.164z
				 M511.381,362.551c5.372,2.307,10.625,8.98,13.351,12.873c1.522-5.646,7.164-11.558,10.008-14.261
				c-6.174-2.12-10.377-6.806-12.427-9.571C520.119,356.325,514.607,360.441,511.381,362.551z"/>
		</g>
		
			<ellipse transform="matrix(-0.812 -0.5837 0.5837 -0.812 731.5563 956.1605)" fill="#FFFFFF" cx="519.78" cy="360.254" rx="1.867" ry="3.606"/>
	</g>
	<g>
		<g>
			<path fill="#FFD62E" d="M196.352,335.978c0,0,12.298-6.792,13.584-14.134c0,0,5.414,9.545,15.236,11.749
				c0,0-12.481,10.646-11.564,18.356C213.607,351.949,204.337,336.712,196.352,335.978z"/>
			<path fill="#FBB040" d="M213.607,353.164c-0.414,0-0.813-0.214-1.038-0.584c-2.491-4.092-10.284-14.836-16.33-15.393
				c-0.53-0.049-0.968-0.438-1.076-0.96c-0.11-0.521,0.134-1.054,0.601-1.313c0.118-0.065,11.805-6.6,12.976-13.281
				c0.088-0.505,0.483-0.899,0.988-0.987c0.507-0.087,1.011,0.151,1.264,0.596c0.052,0.091,5.286,9.109,14.446,11.164
				c0.449,0.102,0.803,0.447,0.914,0.894c0.11,0.445-0.041,0.917-0.392,1.216c-3.299,2.817-11.662,11.326-11.165,17.112
				c0.029,0.102,0.043,0.21,0.043,0.321c0,0.671-0.543,1.215-1.215,1.215C213.619,353.163,213.613,353.164,213.607,353.164z
				 M199.381,335.551c5.372,2.307,10.625,8.98,13.351,12.873c1.522-5.646,7.164-11.558,10.008-14.261
				c-6.174-2.12-10.377-6.806-12.427-9.571C208.119,329.325,202.607,333.441,199.381,335.551z"/>
		</g>
		
			<ellipse transform="matrix(-0.812 -0.5837 0.5837 -0.812 181.9778 725.1274)" fill="#FFFFFF" cx="207.78" cy="333.254" rx="1.867" ry="3.606"/>
	</g>
	<g>
		<g>
			<path fill="#FFD62E" d="M223.852,225.134c0,0,12.298-6.792,13.584-14.134c0,0,5.414,9.545,15.236,11.749
				c0,0-12.481,10.646-11.564,18.356C241.107,241.105,231.837,225.868,223.852,225.134z"/>
			<path fill="#FBB040" d="M241.107,242.32c-0.414,0-0.813-0.214-1.038-0.584c-2.491-4.092-10.284-14.836-16.33-15.393
				c-0.53-0.049-0.968-0.438-1.076-0.96c-0.11-0.521,0.134-1.054,0.601-1.313c0.118-0.065,11.805-6.6,12.976-13.281
				c0.088-0.505,0.483-0.899,0.988-0.987c0.507-0.087,1.011,0.151,1.264,0.596c0.052,0.091,5.286,9.109,14.446,11.164
				c0.449,0.102,0.803,0.447,0.914,0.894c0.11,0.445-0.041,0.917-0.392,1.216c-3.299,2.817-11.662,11.326-11.165,17.112
				c0.029,0.102,0.043,0.21,0.043,0.321c0,0.671-0.543,1.215-1.215,1.215C241.119,242.319,241.113,242.32,241.107,242.32z
				 M226.881,224.707c5.372,2.307,10.625,8.98,13.351,12.873c1.522-5.646,7.164-11.558,10.008-14.261
				c-6.174-2.12-10.377-6.806-12.427-9.571C235.619,218.481,230.107,222.598,226.881,224.707z"/>
		</g>
		
			<ellipse transform="matrix(-0.812 -0.5837 0.5837 -0.812 296.505 540.332)" fill="#FFFFFF" cx="235.28" cy="222.41" rx="1.867" ry="3.606"/>
	</g>
</g>
<g>
	<g>
		<path fill="#B1DDC9" stroke="#184F51" stroke-width="4" stroke-linejoin="round" stroke-miterlimit="10" d="M247.448,136.858
			c0,0-46.044-2.971-71.666-23.208c-5.57,12.625-11.511,34.718-10.769,36.575s23.951,31.563,82.434,23.951V136.858z"/>
		<path fill="#41A87B" d="M239.093,141.871c0,0-26.735-1.486-48.829-13.554c0,0-5.941,22.837-5.941,29.335
			c0,0,14.853,12.253,54.77,11.696C239.093,162.666,239.093,141.871,239.093,141.871z"/>
	</g>
	<g>
		<path fill="#B1DDC9" stroke="#184F51" stroke-width="4" stroke-linejoin="round" stroke-miterlimit="10" d="M173.063,347.911
			c0,0-38.939-11.438-66.214-2.448c-0.793-12.111,0.964-32.158,2.138-33.469c1.174-1.31,29.313-18.852,75.336,5.083L173.063,347.911
			z"/>
		<path fill="#41A87B" d="M167.673,341.248c0,0-22.538-6.839-44.433-3.534c0,0,1.981-20.661,3.941-26.029
			c0,0,15.969-5.643,48.782,6.861C173.947,324.067,167.673,341.248,167.673,341.248z"/>
	</g>
	<g>
		<path fill="#B1DDC9" stroke="#184F51" stroke-width="4" stroke-linejoin="round" stroke-miterlimit="10" d="M385.268,104.875
			c0,0-28.491-24.037-54.743-26.585c3.82-10.473,12.722-26.671,14.193-27.337c1.471-0.666,31.619-4.986,61.434,32.179
			L385.268,104.875z"/>
		<path fill="#41A87B" d="M383.204,97.279c0,0-16.408-14.097-36.034-19.43c0,0,9.318-16.63,12.955-20.417
			c0,0,15.511,1.174,38.457,23.837C394.842,85.163,383.204,97.279,383.204,97.279z"/>
	</g>
	<g>
		<path fill="#B1DDC9" stroke="#184F51" stroke-width="4" stroke-linejoin="round" stroke-miterlimit="10" d="M477.975,164.139
			c0,0-24.278,6.32-40.958,0.243c-0.722,7.468-0.021,19.888,0.679,20.721c0.699,0.831,17.75,12.21,46.645-1.696L477.975,164.139z"/>
		<path fill="#41A87B" d="M474.518,168.152c0,0-14.058,3.793-27.521,1.332c0,0,0.828,12.804,1.935,16.159
			c0,0,9.76,3.792,30.273-3.304C478.064,178.888,474.518,168.152,474.518,168.152z"/>
	</g>
	<g>
		<path fill="#B1DDC9" stroke="#184F51" stroke-width="4" stroke-linejoin="round" stroke-miterlimit="10" d="M411.182,142.745
			c0,0,29.729,11.337,42.486,29.887c6.241-7.183,14.656-20.527,14.546-21.902c-0.111-1.374-9.351-25.673-49.431-32.57
			L411.182,142.745z"/>
		<path fill="#41A87B" d="M417.707,141.144c0,0,17.312,6.425,29.408,18.875c0,0,8.565-13.835,9.89-18.116
			c0,0-7.29-11.098-33.701-18.863C421.941,127.444,417.707,141.144,417.707,141.144z"/>
	</g>
	<g>
		<path fill="#B1DDC9" stroke="#184F51" stroke-width="4" stroke-linejoin="round" stroke-miterlimit="10" d="M210.306,105.587
			c0,0,50.525-3.26,78.641-25.467c6.112,13.854,12.632,38.098,11.817,40.135s-26.282,34.635-90.458,26.282V105.587z"/>
		<path fill="#41A87B" d="M219.474,111.088c0,0,29.337-1.63,53.582-14.873c0,0,6.52,25.06,6.52,32.19
			c0,0-16.299,13.446-60.101,12.835C219.474,133.906,219.474,111.088,219.474,111.088z"/>
	</g>
	<g>
		<path fill="#B1DDC9" stroke="#184F51" stroke-width="4" stroke-linejoin="round" stroke-miterlimit="10" d="M155.132,266.738
			c0,0,32.093-39.16,66.523-49.067c-7.697-13.041-23.599-32.466-25.73-32.992c-2.131-0.525-43.462,1.175-74.072,58.195
			L155.132,266.738z"/>
		<path fill="#41A87B" d="M156.004,256.082c0,0,18.421-22.891,43.31-34.876c0,0-16.565-19.902-22.359-24.057
			c0,0-20.425,5.41-45.454,41.362C137.461,242.785,156.004,256.082,156.004,256.082z"/>
	</g>
	<g>
		<path fill="#B1DDC9" stroke="#184F51" stroke-width="4" stroke-linejoin="round" stroke-miterlimit="10" d="M82.721,227.253
			c0,0,24.813-16.747,45.996-16.526c-2.151-8.69-7.869-22.389-8.986-23.048c-1.118-0.658-24.82-6.697-51.818,20.418L82.721,227.253z
			"/>
		<path fill="#41A87B" d="M85.021,221.365c0,0,14.312-9.846,30.442-12.419c0,0-6.012-14.081-8.591-17.416
			c0,0-12.487-0.396-32.756,15.73C76.768,210.69,85.021,221.365,85.021,221.365z"/>
	</g>
</g>
<g>
	<path fill="#F7941E" stroke="#F15A29" stroke-width="4" stroke-miterlimit="10" d="M93.667,468.25c0,0-6.917,8.25-5.417,12
		s6.75,6,11.75,0s7.083-10.25,7.083-10.25l-2.833-3.5L93.667,468.25z"/>
	<path fill="#F7941E" stroke="#F15A29" stroke-width="4" stroke-miterlimit="10" d="M108.286,471c0,0-2.878,5.75-2.707,9.5
		s4.921,5,8.671,1.25s6.5-10.75,6.5-10.75H108.286z"/>
	<path fill="#FFF200" stroke="#000000" stroke-width="4" stroke-miterlimit="10" d="M130.345,417.657
		c0,0,16.191-14.323,19.256-9.656s8.012,22.318-9.628,35.159C133.667,445.668,122.528,423.78,130.345,417.657z"/>
	<path fill="#FFF200" stroke="#000000" stroke-width="4" stroke-miterlimit="10" d="M85.667,448.668c0,0-0.334-9.338-3.667-12.336
		s-13-12.998-10-28.998s30-30,45-18.333s13.667,19.333,13.333,26.333s2.667,13,6,15.667s6,14.667,1.667,22s-15,23.333-38.667,17
		C79,463.001,85.886,451.272,85.667,448.668z"/>
	<circle cx="96.833" cy="399.834" r="3.167"/>
	<circle cx="108.286" cy="395.179" r="2.707"/>
	<path fill="#F7941E" stroke="#F15A29" stroke-width="4" stroke-linecap="round" stroke-miterlimit="10" d="M116.676,410.174
		c0,0,4.794,3.428-1.069,6.654c-5.864,3.226-17.275,9.294-20.171,6.287c-2.896-3.007-5.085-9.036,1.463-13.437
		c6.548-4.401,13.828-7.033,17.002-6.41c3.174,0.624,6.887,4.652-1.293,7.793c-8.182,3.143-11.724,5.431-11.724,5.431"/>
	<path fill="none" stroke="#000000" stroke-width="4" stroke-linecap="round" stroke-miterlimit="10" d="M93.667,440.262
		c0,0,17.628-14.633,22.315-14.012s10.043,12.673,3.794,21.823S109.014,459.309,100,459.717"/>
	<ellipse fill="#B3B3B3" cx="106.332" cy="503.333" rx="21.331" ry="6.795"/>
</g>
<path fill="none" stroke="#000000" stroke-width="3" stroke-miterlimit="10" d="M316,228.625c0,0,19.438-10.125,44.822-16.111"/>
</svg>
